<svg width="26" height="26" viewBox="0 0 26 26" fill="none" xmlns="http://www.w3.org/2000/svg">
<path d="M24.5 0.815918H1.5C0.946875 0.815918 0.5 1.26041 0.5 1.81058V24.6878C0.5 25.238 0.946875 25.6825 1.5 25.6825H24.5C25.0531 25.6825 25.5 25.238 25.5 24.6878V1.81058C25.5 1.26041 25.0531 0.815918 24.5 0.815918ZM21.6125 8.07384H19.6156C18.05 8.07384 17.7469 8.81362 17.7469 9.90153V12.298H21.4844L20.9969 16.0498H17.7469V25.6825H13.85V16.0529H10.5906V12.298H13.85V9.53164C13.85 6.32075 15.8219 4.57077 18.7031 4.57077C20.0844 4.57077 21.2688 4.67334 21.6156 4.71997V8.07384H21.6125Z" fill="white"/>
</svg>
