<svg width="28" height="28" viewBox="0 0 28 28" fill="none" xmlns="http://www.w3.org/2000/svg">
<path d="M13.9875 0.705079C6.25937 0.701971 0 6.92482 0 14.6055C0 20.6791 3.91562 25.8421 9.36875 27.7381C10.1031 27.9215 9.99062 27.4024 9.99062 27.0481V24.6391C5.75 25.1334 5.57812 22.3421 5.29375 21.8758C4.71875 20.8998 3.35937 20.6512 3.76562 20.1849C4.73125 19.6907 5.71562 20.3092 6.85625 21.9846C7.68125 23.2 9.29062 22.9948 10.1062 22.7928C10.2844 22.0623 10.6656 21.4096 11.1906 20.9029C6.79687 20.1196 4.96562 17.4527 4.96562 14.2822C4.96562 12.7436 5.475 11.3293 6.475 10.1886C5.8375 8.30803 6.53437 6.69792 6.62812 6.45858C8.44375 6.29694 10.3312 7.75164 10.4781 7.86665C11.5094 7.59001 12.6875 7.44391 14.0062 7.44391C15.3312 7.44391 16.5125 7.59622 17.5531 7.87597C17.9062 7.60865 19.6562 6.35911 21.3437 6.51142C21.4344 6.75076 22.1156 8.32357 21.5156 10.1792C22.5281 11.3231 23.0437 12.7498 23.0437 14.2915C23.0437 17.4682 21.2 20.1383 16.7937 20.9091C17.1712 21.2783 17.4708 21.7186 17.6752 22.2043C17.8797 22.6899 17.9848 23.2112 17.9844 23.7377V27.2346C18.0094 27.5143 17.9844 27.791 18.4531 27.791C23.9875 25.9353 27.9719 20.7351 27.9719 14.6086C27.9719 6.92482 21.7094 0.705079 13.9875 0.705079V0.705079Z" fill="white"/>
</svg>
