<svg width="26" height="26" viewBox="0 0 26 26" fill="none" xmlns="http://www.w3.org/2000/svg">
<path d="M12.9987 9.10668C10.7049 9.10668 8.83306 10.9686 8.83306 13.2501C8.83306 15.5316 10.7049 17.3935 12.9987 17.3935C15.2924 17.3935 17.1643 15.5316 17.1643 13.2501C17.1643 10.9686 15.2924 9.10668 12.9987 9.10668ZM25.4924 13.2501C25.4924 11.5343 25.5081 9.83403 25.4112 8.12134C25.3143 6.13202 24.8581 4.36649 23.3956 2.9118C21.9299 1.454 20.1581 1.00329 18.1581 0.906936C16.4331 0.810578 14.7237 0.82612 13.0018 0.82612C11.2768 0.82612 9.56743 0.810578 7.84556 0.906936C5.84556 1.00329 4.07056 1.45711 2.60806 2.9118C1.14243 4.3696 0.689308 6.13202 0.592433 8.12134C0.495558 9.83714 0.511183 11.5374 0.511183 13.2501C0.511183 14.9628 0.495558 16.6661 0.592433 18.3788C0.689308 20.3681 1.14556 22.1336 2.60806 23.5883C4.07368 25.0461 5.84556 25.4968 7.84556 25.5932C9.57056 25.6896 11.2799 25.674 13.0018 25.674C14.7268 25.674 16.4362 25.6896 18.1581 25.5932C20.1581 25.4968 21.9331 25.043 23.3956 23.5883C24.8612 22.1305 25.3143 20.3681 25.4112 18.3788C25.5112 16.6661 25.4924 14.9659 25.4924 13.2501ZM12.9987 19.6252C9.45181 19.6252 6.58931 16.778 6.58931 13.2501C6.58931 9.72213 9.45181 6.87491 12.9987 6.87491C16.5456 6.87491 19.4081 9.72213 19.4081 13.2501C19.4081 16.778 16.5456 19.6252 12.9987 19.6252ZM19.6706 8.10269C18.8424 8.10269 18.1737 7.43751 18.1737 6.61381C18.1737 5.7901 18.8424 5.12492 19.6706 5.12492C20.4987 5.12492 21.1674 5.7901 21.1674 6.61381C21.1677 6.8094 21.1291 7.00312 21.054 7.18387C20.9789 7.36462 20.8686 7.52885 20.7296 7.66716C20.5905 7.80546 20.4254 7.91512 20.2437 7.98986C20.062 8.0646 19.8672 8.10294 19.6706 8.10269Z" fill="white"/>
</svg>
